<!-- Created by Vectors Point from the Noun Project -->
<svg xmlns="http://www.w3.org/2000/svg" xmlns:xlink="http://www.w3.org/1999/xlink" version="1.1" x="0px" y="0px" viewBox="0 0 70 70" enable-background="new 0 0 70 70" xml:space="preserve"><g><path d="M66.0498,29.95c0.2401-0.95,0.36-1.94,0.36-2.96c0-6.88-5.6-12.47-12.48-12.47c-2.17,0-4.21,0.56-5.98,1.53   c-1.3559-2.1548-2.8147-0.9046-3.9-1.99c-1.0097-1.0099,0.0874-2.7014-2.1-3.97c-0.9658-0.5519-2.021-0.5895-3.2,0   c-0.81,0.47-1.85,0.19-2.32-0.62c-0.0099-0.02-0.02-0.04-0.03-0.06c-0.59-0.96-1.6-1.54-2.74-1.54c-1.7264,0-2.8,1.41-2.8,1.65   c-0.48,0.74-1.53,1.01-2.3,0.57c-0.49-0.28-1.02-0.43-1.59-0.43c-1.76,0-3.21,1.4399-3.22,3.2c0,0.9875-0.8019,1.71-1.69,1.71   c-0.48,0-0.93,0.1-1.34,0.29c-0.93-0.22-1.91-0.34-2.91-0.34c-6.88,0-12.48,5.59-12.48,12.47c0,0.76,0.07,1.51,0.2,2.24   c-0.65,0.08-1.27,0.38-1.72,0.86c-0.52,0.56-0.79,1.31-0.74,2.06c1.13,16.81,15.15,29.98,31.93,29.98   c16.78,0,30.81-13.17,31.93-29.98C66.9817,31.3721,66.7134,30.6128,66.0498,29.95z M53.9298,16.02c6.06,0,10.98,4.92,10.98,10.97   c0,0.78-0.08,1.55-0.24,2.28c-0.16-0.03-0.32-0.05-0.4901-0.05h-2.0699c0.2-0.71,0.3-1.46,0.3-2.23c0-4.67-3.8-8.47-8.48-8.47   c-4.7145,0-8.47,3.8416-8.47,8.47c0,0.77,0.1,1.52,0.3,2.23h-2.58c-0.1092-0.5682-0.22-1.4152-0.22-2.23   C42.9598,20.9464,47.8878,16.02,53.9298,16.02z M46.9598,26.99c0-0.08,0-0.16,0.01-0.23c0.1127-3.7491,3.225-6.74,6.96-6.74   c3.85,0,6.98,3.13,6.98,6.97c0,0.78-0.13,1.53-0.37,2.23h-13.21C47.0898,28.52,46.9598,27.77,46.9598,26.99z M26.3698,29.22   c-0.89-1.36-1.42-3-1.42-4.76c0-1.65,0.46-3.19,1.26-4.51c0,0,0.01,0,0-0.01c1.7763-2.7917,4.5955-4.18,7.45-4.18   c4.22,0,7.75,3.02,8.53,7.02c-0.47,1.3199-0.73,2.73-0.73,4.21c0,0.6851,0.0581,1.4259,0.2,2.23   C37.0513,29.22,33.2847,29.22,26.3698,29.22z M24.3198,15.12c0.6-0.6,0.93-1.4,0.93-2.25c0.01-1.06,0.9-1.71,1.72-1.71   c0.8046,0,1.1626,0.66,2.44,0.66c2.6828,0,2.4651-2.45,4.25-2.45c0.9949,0,1.3971,0.7871,1.51,0.9   c1.0948,1.8164,3.6203,1.8318,4.33,1.12c0.53-0.3,1.17-0.3,1.7,0c1.4692,0.8593,0.2397,2.2209,1.8,3.73   c1.5336,1.559,2.7873,0.3447,3.68,1.73c-1.44,1.03-2.64,2.35-3.53,3.88c-1.49-3.78-5.19-6.47-9.49-6.47   c-5.6383,0-10.21,4.578-10.21,10.2c0,1.72,0.43,3.34,1.19,4.76h-3.68c0.21-1.27-0.37-2.6-1.55-3.28c-0.02-0.01-0.03-0.02-0.05-0.03   c-0.5-0.3101-0.8-0.85-0.8-1.45c0-0.6789,0.409-1.2545,0.9-1.5c1.49-0.9,2-2.83,1.13-4.34c-0.01-0.01-0.02-0.03-0.03-0.04   c-0.3826-0.7243-0.2249-1.5816,0.38-2.1C21.7966,15.7089,22.9415,16.4986,24.3198,15.12z M17.8098,16.02c0.51,0,1.01,0.03,1.5,0.11   c-0.4417,0.4417-0.7318,2.02-0.03,3.23c0.01,0.02,0.02,0.03,0.03,0.05c0.4636,0.8624,0.0774,1.9202-0.7,2.31   c-0.97,0.58-1.55,1.6-1.55,2.74c0,1.15,0.59,2.19,1.59,2.78c0.02,0.01,0.04,0.02,0.06,0.03c0.67,0.42,0.95,1.23,0.72,1.95h-12.38   c-0.14-0.72-0.22-1.47-0.22-2.23C6.8298,20.94,11.7598,16.02,17.8098,16.02z M34.9998,60.63c-15.99,0-29.36-12.55-30.43-28.58   c-0.02-0.34,0.1-0.68,0.34-0.93c0.24-0.26,0.56-0.4,0.92-0.4c0.1-0.0001,58.3199-0.04,58.42,0.0099   c0.609,0.0191,1.18,0.5013,1.18,1.32C64.3599,48.08,50.9998,60.63,34.9998,60.63z"/><path d="M50.7898,39.86l-1.88,2.48c-0.25,0.33-0.19,0.8,0.14,1.05c0.363,0.2592,0.8287,0.1604,1.05-0.14l1.88-2.49   c0.25-0.33,0.19-0.8-0.14-1.05S51.0298,39.53,50.7898,39.86z"/><path d="M43.4498,36.59l-1.88,2.49c-0.25,0.33-0.18,0.8,0.15,1.05c0.3019,0.2322,0.7837,0.205,1.05-0.15l1.88-2.48   c0.25-0.33,0.18-0.8-0.15-1.05C44.1699,36.19,43.6998,36.26,43.4498,36.59z"/><path d="M33.9199,50.84l-1.88,2.49c-0.25,0.33-0.18,0.8,0.15,1.05c0.3021,0.2323,0.784,0.2048,1.05-0.15l1.88-2.48   c0.25-0.33,0.18-0.8-0.15-1.05C34.6398,50.45,34.1699,50.51,33.9199,50.84z"/><path d="M40.0498,44.37l-1.8799,2.48c-0.25,0.33-0.19,0.8,0.14,1.05c0.3464,0.2721,0.8169,0.1763,1.05-0.14l1.8799-2.49   c0.25-0.33,0.19-0.8-0.14-1.05C40.7698,43.97,40.2998,44.04,40.0498,44.37z"/><path d="M34.1798,37.07c0.25-0.33,0.1801-0.8-0.15-1.05c-0.33-0.26-0.8-0.19-1.05,0.14l-1.88,2.49c-0.25,0.33-0.18,0.8,0.15,1.05   c0.3019,0.2321,0.7839,0.2049,1.05-0.15L34.1798,37.07z"/><path d="M29.1598,44.37l-1.88,2.48c-0.25,0.33-0.18,0.8,0.15,1.05c0.2897,0.2451,0.7687,0.2163,1.05-0.14l1.88-2.49   c0.25-0.33,0.18-0.8-0.15-1.05S29.4098,44.04,29.1598,44.37z"/><path d="M16.7998,36.16l-1.8799,2.49c-0.25,0.33-0.19,0.8,0.14,1.05c0.3668,0.2619,0.833,0.1601,1.05-0.15l1.8799-2.48   c0.25-0.33,0.19-0.8-0.14-1.05C17.5198,35.76,17.0498,35.83,16.7998,36.16z"/><path d="M24.5098,39.6l-1.88,2.4901c-0.25,0.33-0.18,0.8,0.15,1.05c0.3049,0.2345,0.7824,0.1989,1.05-0.14l1.88-2.49   c0.25-0.33,0.18-0.8-0.15-1.05C25.2299,39.21,24.7598,39.27,24.5098,39.6z"/></g></svg>
